<svg xmlns="http://www.w3.org/2000/svg" width="32" height="32" viewBox="0 0 32 32"><g fill="#FEBB12"><path d="M28 13.5h3.9v-1.7l-3.7-.5zM21.6 3.9V.1L20 0l-.6 3.8zM15.5 5.1l-2.8-2.6-1.2 1 2.4 3zM26.8 7.4l2.7-2.8-1.1-1.2-3 2.3zM16.8 8.9c.1-.1 1.4-1.5 3.5-1.4 2.4.1 4.2 2.2 4 4.6 0 .7-.3 1.3-.6 1.8 0 .1.1.1.1.1.7-.3 1.5-.4 2.3-.4.1-.4.2-1 .3-1.4.2-3.6-2.5-6.6-6.1-6.9-2-.1-4 .7-5.3 2.1.8.5 1.4 1 1.8 1.5"/></g><path fill="#DEDEDD" d="M26.2 13.7c-.8 0-1.5.1-2.3.4-1.4-1.5-3.4-2.3-5.4-2.3-1-3.2-3.8-5.5-7.1-5.5-4.3 0-7.7 3.4-7.7 7.6C1.6 15 0 17.2 0 19.5c0 3.2 2.6 5.8 5.8 5.8h20.4c3.2 0 5.8-2.6 5.8-5.8 0-3.2-2.6-5.8-5.8-5.8zM5.8 23.1c-2 0-3.6-1.6-3.6-3.6 0-1.7 1.4-3.2 2.9-3.6l.7 1.5.8-.4c-.4-1-.7-1.9-.7-3 0-3 2.5-5.5 5.5-5.5 3.1 0 5.3 2.8 5.3 5.8 2.6-1.1 5.8.2 6.5 2.9.7-.9 1.8-1.5 2.9-1.5 2 0 3.6 1.6 3.6 3.6s-1.6 3.6-3.6 3.6H5.8z"/></svg>