<svg xmlns="http://www.w3.org/2000/svg" width="44" height="44"><path fill="#DCDCDC" d="M15.67 12c4.196 0 7.33 3.86 7.33 8v.054c.002 0 .002-.028.003-.056.78-.34 2.08-.498 2.997-.498 2.895 0 5.246 1.883 6 4.5.922-1.232 2.262-2 3.935-2 .35 0 .69.036 1.02.102.16.033.304.093.456.142.165.05.34.084.495.15.062.024.108.063.17.09C39.795 23.282 41 24.997 41 27c0 2.765-2.2 5-5 5H8c-2.798 0-5-2.235-5-5 0-2.296 1.856-4.414 4-5l.892 1.995 1.177-.402-.41-1.188c-.38-.894-.594-1.876-.594-2.905 0-4.143 3.4-7.5 7.603-7.5m7.333 7.95v.048L23 20l.003-.05M15.67 9C9.82 9 5.064 13.71 5.064 19.5v.015C2.11 20.828 0 23.86 0 27c0 4.41 3.59 8 8 8h28c4.41 0 8-3.59 8-8 0-3.045-1.784-5.852-4.556-7.186-.104-.06-.23-.125-.385-.19-.297-.124-.553-.192-.725-.237l-.043-.012-.035-.012c-.155-.055-.39-.135-.687-.197-.563-.113-1.103-.166-1.635-.166-1.065 0-2.08.2-3.013.584C31.217 17.658 28.736 16.5 26 16.5c-.168 0-.348.004-.533.012C24.093 12.15 20.22 9 15.67 9z"/><g fill="#FBBA13"><path d="M38.635 18.662l5.262-.045.1-2.204-5.175-.745zM29.7 5.327L29.656.064 27.41 0l-.703 5.14zM21.183 7.032l-3.754-3.69-1.688 1.49 3.19 4.185zM36.93 10.145l3.69-3.754-1.49-1.687-4.185 3.193z"/></g><path fill="#FBBA13" d="M23.107 12.385c1.1-1.183 2.662-1.923 4.387-1.923.126 0 .254.004.382.012 1.595.1 3.058.818 4.12 2.022s1.592 2.746 1.492 4.34c-.06.927-.33 1.79-.76 2.553.063.065.133.126.193.194.934-.385 1.95-.584 3.015-.584.062 0 .126.008.188.01.188-.635.316-1.297.36-1.985.31-4.952-3.468-9.235-8.42-9.545-.19-.012-.38-.018-.57-.018-2.634 0-5.037 1.153-6.695 3 .854.524 1.632 1.17 2.31 1.923z"/></svg>