<?xml version="1.0" encoding="utf-8"?>
<!-- Generator: Adobe Illustrator 15.1.0, SVG Export Plug-In . SVG Version: 6.00 Build 0)  -->
<!DOCTYPE svg PUBLIC "-//W3C//DTD SVG 1.1//EN" "http://www.w3.org/Graphics/SVG/1.1/DTD/svg11.dtd">
<svg version="1.1" id="Layer_1" xmlns="http://www.w3.org/2000/svg" xmlns:xlink="http://www.w3.org/1999/xlink" x="0px" y="0px"
	 width="32px" height="32px" viewBox="0 0 32 32" enable-background="new 0 0 32 32" xml:space="preserve">
<g>
	<path fill="#FEBB12" d="M16,9.8c3.4,0,6.2,2.8,6.2,6.2c0,3.4-2.8,6.2-6.2,6.2c-3.4,0-6.2-2.8-6.2-6.2C9.8,12.6,12.6,9.8,16,9.8z
		 M16,6.6c-5.2,0-9.4,4.2-9.4,9.4c0,5.2,4.2,9.4,9.4,9.4c5.2,0,9.4-4.2,9.4-9.4C25.4,10.9,21.1,6.6,16,6.6z"/>
	<path fill="#DEDEDD" d="M30,16.8l-13.2,0.8v2.3H30V16.8z M30,7.4L16.8,8.2v2.4H30V7.4z M30,26.1l-13.2,0.7v2.4H30V26.1z M2,2.8
		l13.2,0.8v2.3H2V2.8z M2,12.2l13.2,0.7v2.4H2V12.2z M2,21.4l13.2,0.8v2.4H2V21.4z"/>
</g>
</svg>
