<svg xmlns="http://www.w3.org/2000/svg" width="32" height="32" viewBox="0 0 32 32"><path fill="#ddd" d="M26.1 7.9c-.6 0-1 .5-1 1s.4 1 1 1c1 0 1.8.8 1.8 1.8s-.8 1.8-1.8 1.8H7.4c-.6 0-1.1.5-1.1 1s.5 1.1 1.1 1.1H26c2.2 0 3.9-1.8 3.9-3.9s-1.7-3.8-3.8-3.8zM6.6 19.3H4.5c-.6 0-1-.5-1-1.1 0-.6.5-1 1-1h2.2c.6 0 1 .5 1 1s-.5 1.1-1.1 1.1zM4.5 15.7H3.1c-.5 0-1.1-.5-1.1-1.1s.5-1 1.1-1h1.4c.6 0 1.1.5 1.1 1s-.5 1.1-1.1 1.1zM23.5 17.1h-14c-.6 0-1 .5-1 1 0 .6.5 1 1 1H23.5c.8 0 1.4.6 1.4 1.4 0 .8-.6 1.4-1.4 1.4-.6 0-1 .5-1 1s.5 1.1 1 1.1c2 0 3.6-1.6 3.6-3.6 0-1.6-1.6-3.3-3.6-3.3z"/></svg>